<?xml version="1.0" encoding="UTF-8"?>
<svg width="64" height="64" viewBox="0 0 64 64" fill="none" xmlns="http://www.w3.org/2000/svg">
  <!-- Gradient circle background -->
  <circle cx="32" cy="32" r="30" fill="url(#gradient)" />
  
  <!-- Music note icon -->
  <path d="M45 22.5V40C45 43.3137 42.3137 46 39 46C35.6863 46 33 43.3137 33 40C33 36.6863 35.6863 34 39 34C40.1046 34 41.1334 34.2985 42 33.5V24L30 27V40C30 43.3137 27.3137 46 24 46C20.6863 46 18 43.3137 18 40C18 36.6863 20.6863 34 24 34C25.1046 34 26.1334 34.2985 27 33.5V18.5C27 17.9477 27.4477 17.5 28 17.5L44 14V22.5H45Z" fill="white"/>
  
  <defs>
    <linearGradient id="gradient" x1="32" y1="2" x2="32" y2="62" gradientUnits="userSpaceOnUse">
      <stop stop-color="#FF6B00"/>
      <stop offset="1" stop-color="#9C27B0"/>
    </linearGradient>
  </defs>
</svg>
